<?xml version="1.0" encoding="UTF-8"?>
<svg id="Ebene_1" xmlns="http://www.w3.org/2000/svg" viewBox="0 0 264.96 66.89">
  <path d="M0,13.97c0-2.06.64-3.73,1.91-5,1.27-1.27,3.04-1.91,5.29-1.91,2.4,0,4.19.62,5.36,1.87,1.18,1.25,1.76,2.9,1.76,4.97s-.59,3.64-1.76,4.86c-1.18,1.22-2.96,1.84-5.36,1.84s-4.14-.61-5.36-1.84c-1.22-1.22-1.84-2.82-1.84-4.79ZM7.2,59.98c-2.26,0-3.94-.62-5.04-1.87-1.1-1.25-1.66-2.81-1.66-4.68v-24.62c0-2.06.55-3.7,1.66-4.9,1.1-1.2,2.78-1.8,5.04-1.8s3.95.6,5.08,1.8c1.13,1.2,1.69,2.78,1.69,4.75v24.77c0,1.87-.59,3.43-1.76,4.68-1.18,1.25-2.84,1.87-5,1.87Z"/>
  <path d="M33.19,43.34v9c0,2.5-.66,4.39-1.98,5.69-1.32,1.3-3.06,1.94-5.22,1.94h-.07c-2.35,0-4.21-.65-5.58-1.94-1.37-1.3-2.05-3.19-2.05-5.69v-10.15c0-5.09.77-8.95,2.3-11.59,1.54-2.64,3.48-4.54,5.83-5.69l-.36-1.37h-1.22c-2.21,0-3.95-.71-5.22-2.12-1.27-1.42-1.93-3.35-1.98-5.8-.05-2.4.59-4.34,1.91-5.83,1.32-1.49,3.08-2.23,5.29-2.23h18.94c4.85,0,8.79,1.45,11.84,4.36,3.05,2.9,4.57,7.48,4.57,13.72,0,4.51-.79,8.06-2.38,10.66s-3.67,4.42-6.26,5.47c-2.59,1.06-5.4,1.58-8.42,1.58h-9.94ZM32.26,29.45c0,1.06.2,1.75.61,2.09.41.34,1.14.5,2.2.5h6.7c2.02,0,3.48-.47,4.39-1.4s1.37-2.27,1.37-4-.46-3.05-1.37-3.96c-.91-.91-2.38-1.37-4.39-1.37h-6.7c-1.06,0-1.79.14-2.2.43-.41.29-.61.98-.61,2.09v5.62Z"/>
  <path d="M69.98,59.98c-2.35,0-4.12-.62-5.29-1.87-1.18-1.25-1.76-2.81-1.76-4.68V11.66c0-2.06.59-3.78,1.76-5.15,1.18-1.37,2.94-2.05,5.29-2.05,2.11,0,3.74.68,4.9,2.05,1.15,1.37,1.73,3.04,1.73,5v41.9c0,1.87-.58,3.43-1.73,4.68-1.15,1.25-2.79,1.87-4.9,1.87Z"/>
  <path d="M90.86,59.98c-3.55,0-6.32-.96-8.32-2.88-1.99-1.92-2.99-4.61-2.99-8.06s1.15-5.96,3.46-7.52c2.3-1.56,5.26-2.34,8.86-2.34,2.11,0,4.03.14,5.76.43,1.73.29,3.29.7,4.68,1.22h.22v-1.08c0-1.1-.41-1.98-1.22-2.63-.82-.65-1.85-.95-3.1-.9-1.2,0-2.22.07-3.06.22s-1.88.38-3.13.72c-2.3.58-4.3.53-5.98-.14-1.68-.67-2.83-1.99-3.46-3.96-.58-2.06-.44-3.79.4-5.18.84-1.39,2.12-2.47,3.85-3.24,1.49-.72,3.16-1.32,5-1.8,1.85-.48,3.85-.72,6.01-.72,6.29,0,10.91,1.52,13.86,4.57,2.95,3.05,4.43,8.15,4.43,15.3v11.16c0,1.97-.6,3.6-1.8,4.9-1.2,1.3-2.86,1.94-4.97,1.94-2.3,0-4.02-.65-5.15-1.94-1.13-1.3-1.69-2.88-1.69-4.75v-1.66h-1.44c0,1.25-.23,2.52-.68,3.82s-1.39,2.38-2.81,3.24c-1.42.86-3.66,1.3-6.73,1.3ZM91.58,44.21c0,.82.3,1.39.9,1.73.6.34,1.91.5,3.92.5,1.82,0,3.1-.17,3.82-.5.72-.34,1.08-.91,1.08-1.73,0-.77-.36-1.31-1.08-1.62-.72-.31-1.99-.47-3.82-.47-2.02,0-3.32.16-3.92.47-.6.31-.9.85-.9,1.62Z"/>
  <path d="M126.86,59.98c-2.11,0-3.8-.64-5.08-1.91-1.27-1.27-1.91-2.84-1.91-4.72v-23.83c0-2.02.6-3.72,1.8-5.11,1.2-1.39,2.93-2.09,5.18-2.09s3.89.7,5.04,2.09c1.15,1.39,1.73,3.14,1.73,5.26v3.6h1.3c0-2.74.49-4.9,1.48-6.48.98-1.58,2.24-2.72,3.78-3.42,1.54-.7,3.07-1.04,4.61-1.04,3.7,0,6.41,1.33,8.14,4,1.73,2.66,2.59,6.44,2.59,11.34v15.7c0,1.87-.62,3.44-1.87,4.72-1.25,1.27-2.93,1.91-5.04,1.91s-3.88-.64-5.15-1.91c-1.27-1.27-1.91-2.84-1.91-4.72v-12.74c0-1.73-.32-3.07-.97-4.03-.65-.96-1.6-1.44-2.84-1.44-1.44,0-2.48.53-3.13,1.58-.65,1.06-.97,2.4-.97,4.03v12.6c0,1.87-.6,3.44-1.8,4.72-1.2,1.27-2.86,1.91-4.97,1.91Z"/>
  <path d="M160.92,33.05c0-2.54.89-4.55,2.66-6.01,1.78-1.46,3.94-2.2,6.48-2.2h11.74v-.94c-2.35-.1-4.37-.72-6.05-1.87-1.68-1.15-2.95-2.6-3.82-4.36-.86-1.75-1.3-3.54-1.3-5.36,0-2.88.61-5.23,1.84-7.06,1.22-1.82,2.88-3.16,4.97-4,2.09-.84,4.43-1.26,7.02-1.26,2.3,0,4.07.37,5.29,1.12,1.22.74,2.08,1.73,2.56,2.95.48,1.22.72,2.58.72,4.07,0,2.06-.61,3.82-1.84,5.26s-3.25,2.16-6.08,2.16h-3.96l-.36.79c.14.38.49.91,1.04,1.58.55.67,1.09,1.51,1.62,2.52.53,1.01.79,2.28.79,3.82,0,2.93-.77,5.02-2.3,6.26-1.54,1.25-3.43,1.87-5.69,1.87v1.37c2.26,0,4.15.62,5.69,1.87,1.54,1.25,2.3,3.36,2.3,6.34,0,1.49-.26,2.76-.79,3.82-.53,1.06-1.07,1.91-1.62,2.56s-.9,1.19-1.04,1.62l.36.86h3.96c2.83,0,4.88.74,6.16,2.23,1.27,1.49,1.91,3.29,1.91,5.4,0,1.44-.24,2.81-.72,4.1-.48,1.3-1.36,2.34-2.63,3.13-1.27.79-3.06,1.19-5.36,1.19-2.59,0-4.93-.46-7.02-1.37-2.09-.91-3.74-2.3-4.97-4.18-1.22-1.87-1.84-4.22-1.84-7.06,0-1.92.43-3.77,1.3-5.54.86-1.78,2.13-3.26,3.82-4.46,1.68-1.2,3.7-1.85,6.05-1.94v-.86h-11.74c-2.54,0-4.71-.76-6.48-2.27-1.78-1.51-2.66-3.56-2.66-6.16Z"/>
  <path d="M217.08,60.19c-2.54,0-4.84-.58-6.88-1.73-2.04-1.15-3.64-2.8-4.79-4.93-1.15-2.14-1.73-4.64-1.73-7.52v-12.67l-2.66.36c-1.44.19-2.71-.31-3.82-1.51-1.1-1.2-1.66-2.71-1.66-4.54s.55-3.32,1.66-4.5c1.1-1.18,2.38-1.67,3.82-1.48l2.66.36-.07-4.9c-.05-1.92.5-3.44,1.66-4.57,1.15-1.13,2.83-1.69,5.04-1.69s3.91.56,5.11,1.69c1.2,1.13,1.75,2.65,1.66,4.57l-.14,4.9,3.82-.5c2.59-.38,4.56.08,5.9,1.4,1.34,1.32,2.02,2.89,2.02,4.72s-.66,3.4-1.98,4.72c-1.32,1.32-3.23,1.81-5.72,1.48l-4.03-.5v10.73c0,.62.22,1.19.65,1.69.43.5.96.66,1.58.47.72-.19,1.48-.6,2.27-1.22.79-.62,1.81-.94,3.06-.94,1.87,0,3.31.67,4.32,2.02,1.01,1.34,1.51,3,1.51,4.97,0,1.54-.54,3.01-1.62,4.43-1.08,1.42-2.6,2.56-4.57,3.42-1.97.86-4.32,1.3-7.06,1.3Z"/>
  <path d="M264.96,33.05c0,2.59-.89,4.64-2.66,6.16-1.78,1.51-3.94,2.27-6.48,2.27h-11.74v.86c2.4.1,4.43.75,6.08,1.94,1.66,1.2,2.92,2.69,3.78,4.46.86,1.78,1.3,3.62,1.3,5.54,0,2.83-.61,5.18-1.84,7.06-1.22,1.87-2.88,3.26-4.97,4.18-2.09.91-4.43,1.37-7.02,1.37-2.3,0-4.08-.4-5.33-1.19-1.25-.79-2.12-1.84-2.63-3.13-.5-1.3-.76-2.66-.76-4.1,0-2.11.65-3.91,1.94-5.4,1.3-1.49,3.33-2.23,6.12-2.23h3.96l.36-.86c-.14-.43-.49-.97-1.04-1.62-.55-.65-1.09-1.5-1.62-2.56-.53-1.06-.79-2.33-.79-3.82,0-2.98.77-5.09,2.3-6.34,1.54-1.25,3.43-1.87,5.69-1.87v-1.37c-2.26,0-4.15-.62-5.69-1.87-1.54-1.25-2.3-3.34-2.3-6.26,0-1.54.26-2.81.79-3.82.53-1.01,1.07-1.85,1.62-2.52.55-.67.9-1.2,1.04-1.58l-.36-.79h-3.96c-2.78,0-4.8-.72-6.05-2.16s-1.87-3.19-1.87-5.26c0-1.49.24-2.84.72-4.07.48-1.22,1.33-2.21,2.56-2.95,1.22-.74,2.99-1.12,5.29-1.12,2.59,0,4.93.42,7.02,1.26,2.09.84,3.74,2.17,4.97,4,1.22,1.83,1.84,4.18,1.84,7.06,0,1.82-.43,3.61-1.3,5.36-.86,1.75-2.12,3.2-3.78,4.36-1.66,1.15-3.68,1.78-6.08,1.87v.94h11.74c2.54,0,4.7.73,6.48,2.2,1.78,1.46,2.66,3.47,2.66,6.01Z"/>
</svg>